<?xml version="1.0"?>
<svg xmlns="http://www.w3.org/2000/svg" xmlns:xlink="http://www.w3.org/1999/xlink" xmlns:svgjs="http://svgjs.com/svgjs" version="1.1" width="512" height="512" x="0" y="0" viewBox="0 0 95.926 95.926" style="enable-background:new 0 0 512 512" xml:space="preserve" class=""><g>
<g xmlns="http://www.w3.org/2000/svg">
	<g>
		<path d="M47.893,47.221c11.768,0,21.341-10.592,21.341-23.611S59.66,0,47.893,0C36.125,0,26.55,10.592,26.55,23.61    C26.55,36.63,36.125,47.221,47.893,47.221z" fill="#ffffff" data-original="#000000" style="" class=""/>
		<path d="M72.477,44.123c-1.244-0.269-2.524,0.272-3.192,1.355C61.65,57.847,49.34,58.204,47.962,58.204    s-13.687-0.357-21.32-12.722c-0.67-1.085-1.953-1.628-3.198-1.354C6.868,47.777,2.497,72.798,3.789,93.115    c0.101,1.58,1.411,2.811,2.994,2.811h82.36c1.583,0,2.894-1.23,2.993-2.811C93.429,72.775,89.057,47.74,72.477,44.123z" fill="#ffffff" data-original="#000000" style="" class=""/>
	</g>
</g>
<g xmlns="http://www.w3.org/2000/svg">
</g>
<g xmlns="http://www.w3.org/2000/svg">
</g>
<g xmlns="http://www.w3.org/2000/svg">
</g>
<g xmlns="http://www.w3.org/2000/svg">
</g>
<g xmlns="http://www.w3.org/2000/svg">
</g>
<g xmlns="http://www.w3.org/2000/svg">
</g>
<g xmlns="http://www.w3.org/2000/svg">
</g>
<g xmlns="http://www.w3.org/2000/svg">
</g>
<g xmlns="http://www.w3.org/2000/svg">
</g>
<g xmlns="http://www.w3.org/2000/svg">
</g>
<g xmlns="http://www.w3.org/2000/svg">
</g>
<g xmlns="http://www.w3.org/2000/svg">
</g>
<g xmlns="http://www.w3.org/2000/svg">
</g>
<g xmlns="http://www.w3.org/2000/svg">
</g>
<g xmlns="http://www.w3.org/2000/svg">
</g>
</g></svg>
